<svg width="20" height="20" viewBox="0 0 20 20" fill="none" xmlns="http://www.w3.org/2000/svg">
<circle cx="10" cy="10" r="10" fill="#7662EA"/>
<g clip-path="url(#clip0_1_59)">
<path d="M14.6917 10C14.6927 10.1367 14.6511 10.2703 14.5727 10.3823C14.4943 10.4943 14.383 10.5791 14.2542 10.625L11.5917 11.5917L10.625 14.2542C10.5776 14.3818 10.4924 14.4918 10.3806 14.5695C10.2689 14.6472 10.1361 14.6888 10 14.6888C9.86391 14.6888 9.73108 14.6472 9.61935 14.5695C9.50763 14.4918 9.42236 14.3818 9.375 14.2542L8.40833 11.5917L5.74583 10.625C5.61825 10.5776 5.50821 10.4924 5.43051 10.3806C5.35281 10.2689 5.31116 10.1361 5.31116 10C5.31116 9.86391 5.35281 9.73108 5.43051 9.61935C5.50821 9.50763 5.61825 9.42236 5.74583 9.375L8.40833 8.40833L9.375 5.74583C9.42236 5.61825 9.50763 5.50821 9.61935 5.43051C9.73108 5.35281 9.86391 5.31116 10 5.31116C10.1361 5.31116 10.2689 5.35281 10.3806 5.43051C10.4924 5.50821 10.5776 5.61825 10.625 5.74583L11.5917 8.40833L14.2542 9.375C14.383 9.42086 14.4943 9.50567 14.5727 9.61767C14.6511 9.72967 14.6927 9.86329 14.6917 10Z" fill="white"/>
</g>
<defs>
<clipPath id="clip0_1_59">
<rect width="10.6667" height="10.6667" fill="white" transform="translate(4.66669 4.66666)"/>
</clipPath>
</defs>
</svg>
